<svg width="81" height="30" viewBox="0 0 81 30" fill="none" xmlns="http://www.w3.org/2000/svg">
<path d="M68.0884 4.19003C68.3845 4.26054 68.6954 4.29542 68.9734 4.40933C70.0291 4.84018 70.6712 5.61974 70.8678 6.73795C70.973 7.34964 70.8816 7.97855 70.6065 8.53614C70.3314 9.09372 69.8865 9.55189 69.3344 9.84613C68.2294 10.4327 67.1283 10.3731 66.0969 9.66325C65.2691 9.09291 64.8329 8.27848 64.8141 7.28116C64.7937 6.17303 65.2769 5.30281 66.2042 4.68055C66.6098 4.41148 67.0773 4.24784 67.5637 4.20475C67.586 4.20079 67.608 4.19535 67.6295 4.18848L68.0884 4.19003Z" fill="#F26D24"/>
<path d="M68.0277 15.8286C66.5077 15.8162 65.2961 15.4303 64.2264 14.6414C63.5975 14.1805 63.0655 13.6028 62.6601 12.9405C62.6282 12.8959 62.6088 12.8437 62.6038 12.7893C62.5988 12.7348 62.6085 12.6801 62.6319 12.6305C63.1636 11.5286 64.0243 10.8227 65.2241 10.5259C65.3165 10.5026 65.4113 10.4902 65.5052 10.4709C65.5916 10.4541 65.6806 10.4563 65.766 10.4773C65.8514 10.4983 65.9311 10.5377 65.9994 10.5925C66.5847 11.0041 67.2935 11.2076 68.0105 11.1698C68.5752 11.1458 69.1195 11.011 69.5768 10.6801C69.9167 10.4329 70.2417 10.4476 70.6043 10.5491C71.6271 10.8304 72.3985 11.4341 72.9428 12.3314C73.1777 12.7189 73.1879 12.7274 72.9357 13.1063C72.3441 14.0112 71.5145 14.7396 70.5362 15.2133C69.6277 15.6357 68.7584 15.8286 68.0277 15.8286Z" fill="#F26D24"/>
<path d="M3.88284 13.7803H11.4089V16.5785H0V14.0174L7.47827 2.82298H0V0.0239868H11.4089V2.58586L3.88284 13.7803Z" fill="#F26D24"/>
<path d="M18.4251 2.70446V6.8549H24.0575V9.48961H18.4251V13.8772H24.7764V16.5809H15.0693V0H24.7804V2.70446H18.4251Z" fill="#0F2B3C"/>
<path d="M43.0177 16.5785H39.6619L32.0654 5.21828V16.5785H28.708V0H32.0638L39.6603 11.3843V0H43.0161L43.0177 16.5785Z" fill="#0F2B3C"/>
<path d="M59.884 0.0239258L54.2274 10.8154V16.5784H50.8716V10.8154L45.1914 0.0239258H48.9779L52.5733 7.58942L56.1453 0.0239258H59.884Z" fill="#0F2B3C"/>
<path d="M79.3112 8.56516C79.3113 9.5552 79.1143 10.5356 78.7314 11.4503C78.3485 12.365 77.7873 13.1961 77.0797 13.8961C76.3722 14.5961 75.5322 15.1514 74.6078 15.5301C73.6833 15.9089 72.6925 16.1037 71.692 16.1035C71.0443 16.1063 70.3991 16.0259 69.7725 15.8641C71.4018 15.4427 72.8439 14.4987 73.8732 13.1798C74.9025 11.8609 75.4608 10.2416 75.4608 8.57523C75.4608 6.90888 74.9025 5.28955 73.8732 3.97067C72.8439 2.65178 71.4018 1.70777 69.7725 1.28638C70.8975 0.998632 72.074 0.968955 73.2124 1.19961C74.3508 1.43027 75.4208 1.91517 76.341 2.61731C77.2611 3.31945 78.007 4.22029 78.5218 5.25108C79.0365 6.28188 79.3065 7.4154 79.3112 8.56516Z" stroke="#112B3C" stroke-width="1.80013" stroke-miterlimit="10"/>
<path d="M75.4707 8.56512C75.4676 10.0547 75.0183 11.5099 74.1796 12.7469C73.3409 13.9839 72.1504 14.9471 70.7586 15.5148C69.3669 16.0825 67.8362 16.2292 66.3602 15.9363C64.8842 15.6435 63.529 14.9243 62.466 13.8696C61.4029 12.815 60.6797 11.4721 60.3878 10.0108C60.0958 8.54955 60.2481 7.03542 60.8256 5.6598C61.403 4.28418 62.3796 3.1088 63.632 2.28223C64.8843 1.45565 66.3562 1.01498 67.8616 1.0159C68.5097 1.01415 69.1553 1.09621 69.7819 1.25999C71.4113 1.6869 72.8524 2.6346 73.8812 3.95571C74.91 5.27682 75.4688 6.8973 75.4707 8.56512Z" stroke="#112B3C" stroke-width="1.80013" stroke-miterlimit="10"/>
<path d="M14.2485 19.3789L11.1778 29.8635H9.62715L7.16416 21.4247L4.60953 29.8635L3.07378 29.879L0.110352 19.3789H1.58502L3.89608 28.2695L6.44992 19.3789H8.00056L10.433 28.2393L12.759 19.3789H14.2485Z" fill="#0F2B3C"/>
<path d="M17.7532 29.4731C17.1232 29.1244 16.607 28.605 16.2652 27.976C15.906 27.3287 15.7261 26.5796 15.7256 25.7287C15.7256 24.8861 15.9107 24.1414 16.2808 23.4947C16.6319 22.8663 17.1564 22.3497 17.7931 22.0053C18.4553 21.6646 19.1906 21.4868 19.937 21.4868C20.6833 21.4868 21.4186 21.6646 22.0808 22.0053C22.7158 22.3485 23.2399 22.8621 23.5931 23.4869C23.9627 24.1296 24.1478 24.8768 24.1483 25.7287C24.1489 26.5806 23.9588 27.3297 23.5782 27.976C23.214 28.6071 22.6796 29.1255 22.0346 29.4731C21.3722 29.8275 20.6293 30.0086 19.8763 29.9993C19.1343 30.0098 18.4025 29.8284 17.7532 29.4731ZM21.2726 28.4495C21.7173 28.21 22.0838 27.8501 22.3291 27.4118C22.5974 26.9505 22.7316 26.389 22.7316 25.7272C22.7316 25.0654 22.6011 24.5039 22.34 24.0425C22.1029 23.6077 21.7439 23.2498 21.3063 23.0119C20.8784 22.7894 20.4023 22.6732 19.9189 22.6732C19.4356 22.6732 18.9595 22.7894 18.5316 23.0119C18.0981 23.2487 17.7451 23.6074 17.5174 24.0425C17.2658 24.5039 17.1399 25.0654 17.1399 25.7272C17.1399 26.3988 17.2639 26.9652 17.5119 27.4266C17.7321 27.861 18.0781 28.2206 18.5058 28.4595C18.9251 28.6862 19.3961 28.8028 19.8739 28.7982C20.3623 28.7995 20.8432 28.6796 21.2726 28.4495Z" fill="#0F2B3C"/>
<path d="M28.867 21.8613C29.3181 21.603 29.8679 21.4726 30.5163 21.47V22.8842H30.1514C28.6007 22.8842 27.8254 23.7165 27.8254 25.381V29.8639H26.4424V21.6203H27.8254V22.9578C28.0575 22.4999 28.4195 22.1188 28.867 21.8613Z" fill="#0F2B3C"/>
<path d="M37.2359 29.8636L33.9678 26.2215V29.8636H32.584V18.7319H33.9678V25.2761L37.1787 21.62H39.1092L35.1872 25.7271L39.124 29.8636H37.2359Z" fill="#0F2B3C"/>
<path d="M44.2735 22.7486H42.5255V29.8639H41.1417V22.7486H40.0625V21.6203H41.1417V21.0337C41.1417 20.1116 41.3824 19.4371 41.8637 19.0104C42.3451 18.5837 43.1181 18.3706 44.1826 18.3711V19.5149C43.5744 19.5149 43.146 19.6327 42.8975 19.8682C42.649 20.1038 42.525 20.4913 42.5255 21.0306V21.6172H44.2735V22.7486Z" fill="#0F2B3C"/>
<path d="M47.8682 29.4731C47.238 29.1247 46.7217 28.6052 46.3802 27.976C46.02 27.3287 45.8398 26.5796 45.8398 25.7287C45.8398 24.8861 46.0249 24.1414 46.3951 23.4946C46.7462 22.8661 47.2711 22.3494 47.9081 22.0053C48.5702 21.6646 49.3054 21.4868 50.0516 21.4868C50.7978 21.4868 51.533 21.6646 52.1951 22.0053C52.8303 22.3482 53.3545 22.8618 53.7073 23.4869C54.0759 24.1285 54.2602 24.8753 54.2602 25.7272C54.2602 26.5791 54.0702 27.3282 53.6901 27.9744C53.3262 28.6064 52.7914 29.1254 52.1457 29.4731C51.4833 29.8275 50.7404 30.0086 49.9874 29.9993C49.2468 30.009 48.5164 29.8276 47.8682 29.4731ZM51.3877 28.4495C51.8323 28.21 52.1988 27.8501 52.4441 27.4118C52.713 26.9505 52.8472 26.389 52.8467 25.7272C52.8461 25.0654 52.7156 24.5038 52.4551 24.0425C52.2179 23.6077 51.859 23.2498 51.4213 23.0119C50.9934 22.7894 50.5173 22.6732 50.034 22.6732C49.5506 22.6732 49.0745 22.7894 48.6466 23.0119C48.2131 23.2487 47.8602 23.6074 47.6325 24.0425C47.3787 24.5038 47.2521 25.0654 47.2526 25.7272C47.2526 26.3988 47.3766 26.9652 47.6246 27.4266C47.8456 27.8614 48.1928 28.2211 48.6216 28.4595C49.0409 28.6862 49.5119 28.8028 49.9897 28.7982C50.4778 28.7994 50.9585 28.6795 51.3877 28.4495Z" fill="#0F2B3C"/>
<path d="M58.9822 21.8613C59.4333 21.603 59.9834 21.4726 60.6323 21.47V22.8842H60.2674C58.7168 22.8842 57.9414 23.7165 57.9414 25.381V29.8639H56.5576V21.6203H57.9422V22.9578C58.1734 22.4998 58.5349 22.1186 58.9822 21.8613Z" fill="#0F2B3C"/>
<path d="M62.6981 23.4932C63.0253 22.8744 63.5238 22.3605 64.1352 22.0115C64.7775 21.653 65.5053 21.4713 66.2427 21.4854C67.266 21.4854 68.1099 21.731 68.7746 22.2223C69.4392 22.7136 69.8775 23.3955 70.0895 24.2681H68.6015C68.4744 23.7881 68.1812 23.3674 67.7729 23.0794C67.3626 22.789 66.8533 22.6436 66.245 22.6431C65.4551 22.6431 64.8165 22.9115 64.3294 23.4482C63.8423 23.985 63.5993 24.7447 63.6003 25.7273C63.6003 26.7197 63.8434 27.4868 64.3294 28.0288C64.8155 28.5707 65.4532 28.8414 66.2427 28.8409C66.8509 28.8409 67.3579 28.7006 67.7635 28.4201C68.1748 28.1289 68.4697 27.7041 68.5968 27.2198H70.0848C69.8854 28.0243 69.414 28.7371 68.7487 29.24C68.0799 29.7457 67.2446 29.9989 66.2427 29.9994C65.5061 30.0131 64.7792 29.8314 64.1376 29.4732C63.5247 29.1226 63.0261 28.6058 62.7005 27.9838C62.3559 27.3422 62.1836 26.59 62.1836 25.7273C62.182 24.8749 62.3535 24.1302 62.6981 23.4932Z" fill="#0F2B3C"/>
<path d="M79.9541 26.2534H73.2919C73.3441 27.0666 73.6255 27.7009 74.1361 28.1566C74.6468 28.6122 75.2675 28.8403 75.9985 28.8408C76.5963 28.8408 77.0954 28.7029 77.4958 28.427C77.8905 28.1588 78.1865 27.771 78.3393 27.322H79.8273C79.6155 28.0977 79.1435 28.7792 78.4889 29.2547C77.8201 29.7516 76.9891 29.9999 75.9961 29.9993C75.2547 30.0118 74.5231 29.8303 73.8754 29.4732C73.2522 29.1227 72.7432 28.6033 72.4085 27.976C72.053 27.3287 71.8755 26.5796 71.876 25.7288C71.8765 24.8779 72.0488 24.1307 72.3929 23.487C72.72 22.8632 73.2248 22.3481 73.8448 22.0053C74.4718 21.6587 75.1908 21.4854 76.0016 21.4854C76.792 21.4854 77.4914 21.6558 78.0996 21.9968C78.6938 22.3239 79.1814 22.8118 79.5054 23.4033C79.8413 24.0252 80.0114 24.7215 79.9996 25.4266C79.9988 25.7028 79.9837 25.9788 79.9541 26.2534ZM78.221 23.7938C77.9944 23.4236 77.6645 23.126 77.2711 22.9368C76.8563 22.738 76.4005 22.6375 75.9397 22.6431C75.2803 22.6283 74.6405 22.8656 74.1534 23.3056C73.6616 23.7463 73.3804 24.358 73.3099 25.1406H78.5703C78.5835 24.6682 78.4625 24.2016 78.221 23.7938Z" fill="#0F2B3C"/>
</svg>
